<svg width="205" height="39" viewBox="0 0 205 39" fill="none" xmlns="http://www.w3.org/2000/svg">
<path d="M8.56812 0.622314H0.0644531V38.7447H8.56812V0.622314Z" fill="#018400"/>
<path d="M36.3611 0.655762V21.7654C36.3611 26.6631 32.4179 30.6389 27.551 30.6389H11.8525V38.7448H28.0356C37.1523 38.7448 44.5417 31.3022 44.5417 22.12V0.655762H36.3611Z" fill="#018400"/>
<path d="M33.2716 11.7278C33.3875 17.3307 28.4999 22.3244 22.7797 22.4454C16.637 22.5747 11.5961 17.9648 11.36 12.2368C11.1198 6.47965 15.4897 0.964448 22.2744 0.897698C28.2224 0.843464 33.1846 5.37828 33.2716 11.7278Z" fill="#8BDF03"/>
<path d="M56.6868 6.23344V4.63144C56.6868 3.28811 56.3554 2.24931 55.7051 1.54844C55.0506 0.843399 54.0648 0.484619 52.7725 0.484619H48.9121V16.9885H51.7163V10.3844H52.7767C54.069 10.3844 55.0548 10.0257 55.7092 9.32061C56.3554 8.61557 56.6868 7.57677 56.6868 6.23344ZM51.7121 3.07951H52.7725C53.1494 3.07951 53.4228 3.17964 53.6051 3.38406C53.7873 3.58848 53.8826 3.9556 53.8826 4.47708V6.40031C53.8826 6.91762 53.7915 7.28474 53.6051 7.49334C53.4228 7.69776 53.1494 7.79788 52.7725 7.79788H51.7121V3.07951Z" fill="#018400"/>
<path d="M64.9746 14.4019H60.6006V9.68771H64.0758V7.09699H60.6006V3.07949H64.9746V0.48877H57.7964V16.9926H64.9746V14.4019Z" fill="#018400"/>
<path d="M72.5713 16.1123C73.2464 15.3781 73.5861 14.3184 73.5861 12.9584C73.5861 11.9196 73.379 11.0018 72.9731 10.2259C72.5671 9.45824 71.8216 8.59467 70.7571 7.66017C69.9411 6.94678 69.3736 6.33352 69.0671 5.83707C68.7689 5.35313 68.6156 4.82331 68.6156 4.26428C68.6156 3.29641 68.976 2.84585 69.7464 2.84585C70.1233 2.84585 70.3967 2.95432 70.5872 3.1796C70.7778 3.40905 70.8772 3.78869 70.8772 4.31017V5.28221H73.5405V4.47287C73.5405 3.12953 73.2133 2.0824 72.5754 1.3565C71.9293 0.626422 70.9683 0.255127 69.7215 0.255127C68.4582 0.255127 67.4807 0.626422 66.8138 1.35232C66.1469 2.07823 65.8114 3.11285 65.8114 4.42281C65.8114 5.38651 66.0268 6.2626 66.4493 7.03022C66.8677 7.7895 67.6132 8.6489 68.6653 9.58339C69.4772 10.2968 70.0446 10.9142 70.3429 11.419C70.6369 11.9155 70.7861 12.4953 70.7861 13.1462C70.7861 13.6802 70.6866 14.0681 70.4878 14.2976C70.289 14.5229 70.0032 14.6355 69.6097 14.6355C68.8061 14.6355 68.4334 14.1766 68.4334 13.1962V11.9488H65.77V13.0127C65.77 14.356 66.0972 15.4031 66.7475 16.129C67.402 16.8591 68.3712 17.2304 69.6346 17.2304C70.9062 17.2221 71.8961 16.8508 72.5713 16.1123Z" fill="#018400"/>
<path d="M78.5606 17.2221C79.8364 17.2221 80.8305 16.8466 81.5139 16.1123C82.1932 15.3781 82.5412 14.331 82.5412 13.0043V4.47287C82.5412 3.14622 82.1974 2.09909 81.5139 1.36484C80.8305 0.626421 79.8364 0.255127 78.5606 0.255127C77.2849 0.255127 76.2908 0.630593 75.6073 1.36484C74.928 2.09909 74.5801 3.14622 74.5801 4.47287V13.0043C74.5801 14.331 74.9239 15.3781 75.6073 16.1123C76.2908 16.8508 77.2849 17.2221 78.5606 17.2221ZM79.737 13.167C79.737 14.1516 79.3518 14.6313 78.5606 14.6313C77.7695 14.6313 77.3843 14.1516 77.3843 13.167V4.31017C77.3843 3.32561 77.7695 2.84585 78.5606 2.84585C79.3518 2.84585 79.737 3.32561 79.737 4.31017V13.167Z" fill="#018400"/>
<path d="M86.5013 5.89967L89.3469 16.9926H92.1883V0.48877H89.6617V9.4374L87.3918 0.48877H83.9746V16.9926H86.5013V5.89967Z" fill="#018400"/>
<path d="M99.4908 9.4374L97.2209 0.48877H93.8037V16.9926H96.3304V5.89967L99.176 16.9926H102.017V0.48877H99.4908V9.4374Z" fill="#018400"/>
<path d="M105.613 0.48877L102.945 16.9926H105.571L106.031 13.8137H108.682L109.138 16.9926H111.946L109.279 0.48877H105.613ZM108.334 11.3398H106.367L107.34 4.26847L108.334 11.3398Z" fill="#018400"/>
<path d="M120.346 17.2221C121.622 17.2221 122.616 16.8466 123.299 16.1123C123.978 15.3781 124.326 14.331 124.326 13.0043V4.47287C124.326 3.14622 123.982 2.09909 123.299 1.36484C122.616 0.626421 121.622 0.255127 120.346 0.255127C119.07 0.255127 118.076 0.630593 117.392 1.36484C116.713 2.09909 116.365 3.14622 116.365 4.47287V13.0043C116.365 14.331 116.709 15.3781 117.392 16.1123C118.076 16.8508 119.07 17.2221 120.346 17.2221ZM121.522 13.167C121.522 14.1516 121.137 14.6313 120.346 14.6313C119.555 14.6313 119.169 14.1516 119.169 13.167V4.31017C119.169 3.32561 119.555 2.84585 120.346 2.84585C121.137 2.84585 121.522 3.32561 121.522 4.31017V13.167Z" fill="#018400"/>
<path d="M129.624 0.48877H125.76V16.9926H128.564V10.3844H129.624C130.917 10.3844 131.902 10.0256 132.557 9.32059C133.207 8.61555 133.539 7.58093 133.539 6.23759V4.6356C133.539 3.29226 133.207 2.25346 132.557 1.55259C131.902 0.843377 130.917 0.48877 129.624 0.48877ZM128.564 3.07949H129.624C130.001 3.07949 130.275 3.17962 130.457 3.38404C130.639 3.58846 130.734 3.95558 130.734 4.47706V6.40029C130.734 6.9176 130.643 7.28472 130.457 7.49332C130.275 7.69774 130.001 7.79786 129.624 7.79786H128.564V3.07949Z" fill="#018400"/>
<path d="M136.674 16.9926H139.474V3.07949H142.125V0.48877H134.027V3.07949H136.674V16.9926Z" fill="#018400"/>
<path d="M145.878 0.48877H143.074V16.9926H145.878V0.48877Z" fill="#018400"/>
<path d="M152.878 11.4232L151.362 0.48877H147.493V16.9926H149.974V6.07071L151.594 16.8758L151.61 16.9926H153.963L155.599 6.07071V16.9926H158.263V0.48877H154.394L152.878 11.4232Z" fill="#018400"/>
<path d="M161.858 0.48877L159.19 16.9926H161.817L162.276 13.8137H164.927L165.383 16.9926H168.191L165.524 0.48877H161.858ZM164.579 11.3398H162.612L163.585 4.26847L164.579 11.3398Z" fill="#018400"/>
<path d="M174.545 13.0753C174.545 13.5634 174.433 13.9221 174.213 14.1516C173.994 14.3769 173.65 14.4937 173.182 14.4937C172.888 14.4937 172.619 14.4645 172.387 14.4061L172.217 14.3644V16.9718L172.329 16.9926C172.66 17.0552 173.062 17.0886 173.53 17.0886C174.806 17.0886 175.771 16.7465 176.404 16.0707C177.034 15.399 177.349 14.3685 177.349 13.0085V0.48877H174.545V13.0753Z" fill="#018400"/>
<path d="M180.828 0.48877L178.161 16.9926H180.787L181.247 13.8137H183.897L184.353 16.9926H187.161L184.494 0.48877H180.828ZM183.55 11.3398H181.582L182.555 4.26847L183.55 11.3398Z" fill="#018400"/>
<path d="M192.567 7.66432C191.751 6.95093 191.184 6.33767 190.877 5.84122C190.579 5.35729 190.426 4.82746 190.426 4.26843C190.426 3.30056 190.786 2.85 191.556 2.85C191.933 2.85 192.207 2.95847 192.397 3.18375C192.588 3.4132 192.687 3.79284 192.687 4.31432V5.28636H195.351V4.47702C195.351 3.13369 195.023 2.08655 194.386 1.36065C193.739 0.630573 192.778 0.259277 191.532 0.259277C190.268 0.259277 189.291 0.630573 188.624 1.35648C187.957 2.08238 187.621 3.117 187.621 4.42696C187.621 5.39066 187.837 6.26675 188.259 7.03437C188.678 7.79365 189.423 8.65305 190.475 9.58755C191.287 10.3009 191.855 10.9184 192.153 11.4232C192.447 11.9196 192.596 12.4995 192.596 13.1503C192.596 13.6843 192.497 14.0723 192.298 14.3017C192.099 14.527 191.813 14.6397 191.42 14.6397C190.616 14.6397 190.243 14.1808 190.243 13.2004V11.953H187.58V13.0168C187.58 14.3601 187.911 15.4073 188.558 16.1332C189.212 16.8633 190.181 17.2346 191.445 17.2346C192.72 17.2346 193.71 16.8591 194.386 16.1248C195.061 15.3906 195.4 14.3309 195.4 12.9709C195.4 11.9321 195.193 11.0143 194.787 10.2384C194.377 9.45822 193.632 8.59464 192.567 7.66432Z" fill="#018400"/>
<path d="M202.147 0.48877H198.486L195.818 16.9926H198.444L198.904 13.8137H201.555L202.011 16.9926H204.819L202.147 0.48877ZM201.207 11.3398H199.24L200.213 4.26847L201.207 11.3398Z" fill="#018400"/>
<path d="M52.59 26.9424C51.7492 26.9424 50.8918 27.2219 50.2332 27.7142C49.703 28.1105 49.0692 28.8197 49.0692 29.9461C49.0692 31.3854 50.1793 32.0112 51.161 32.566C51.977 33.0291 52.6853 33.4254 52.6853 34.1931C52.6853 35.4404 51.3267 35.77 50.606 35.77C49.674 35.77 49.003 35.3028 48.7834 35.1484L48.7296 35.1109L48.1704 36.0495L48.2035 36.0829C48.7296 36.6127 49.6533 36.9381 50.6184 36.9381C51.5006 36.9381 52.3291 36.6837 52.9504 36.2206C53.6628 35.6866 54.0397 34.9231 54.0397 34.0137C54.0397 32.4993 52.9255 31.8985 51.9438 31.3646C51.1278 30.9223 50.4237 30.5427 50.4237 29.7417C50.4237 28.7154 51.4344 28.1022 52.4119 28.1022C53.174 28.1022 53.8078 28.3608 54.1019 28.6153L54.1598 28.6654L54.7356 27.6808L54.6983 27.6474C54.1681 27.151 53.5385 26.9424 52.59 26.9424Z" fill="#018400"/>
<path d="M59.3538 29.0576C58.368 29.0576 57.4526 29.4581 56.7816 30.1924C56.0111 31.0309 55.6011 32.2533 55.6011 33.7301C55.6011 34.748 55.833 35.5449 56.2928 36.0997C56.7567 36.6587 57.4236 36.9424 58.2768 36.9424C59.3414 36.9424 60.294 36.5127 60.9651 35.7284C61.6775 34.894 62.0544 33.7051 62.0544 32.2866C62.0544 31.2437 61.8017 30.4302 61.3006 29.867C60.8325 29.3371 60.1615 29.0576 59.3538 29.0576ZM60.7372 32.1406C60.7372 34.4393 59.8218 35.9245 58.4053 35.9245C57.4484 35.9245 56.9431 35.1694 56.9431 33.7426C56.9431 31.9904 57.552 30.1131 59.2627 30.1131C60.2692 30.1131 60.7372 30.7556 60.7372 32.1406Z" fill="#018400"/>
<path d="M66.2008 35.6826C65.9771 35.7661 65.7659 35.8078 65.5671 35.8078C65.273 35.8078 64.9251 35.6951 64.9251 35.1611V35.157C64.9251 35.0735 64.9251 34.8816 66.1304 26.4211L66.1428 26.3335L64.7967 26.6339L64.7925 26.6756C64.5896 28.1399 64.4197 29.3581 64.2789 30.3635C63.5996 35.2446 63.5996 35.2446 63.5996 35.4073C63.5996 36.3376 64.1878 36.9425 65.0949 36.9425C65.5546 36.9425 65.9937 36.8216 66.3582 36.5963L66.3913 36.5754L66.2754 35.6576L66.2008 35.6826Z" fill="#018400"/>
<path d="M72.2482 34.7982C71.6103 35.4907 70.9062 35.8745 70.2683 35.8745C69.4937 35.8745 69.1623 35.4949 69.1623 34.6063C69.1623 34.4853 69.1955 34.1724 69.8914 29.1286L69.9038 29.041L68.57 29.3247L68.3671 30.789C67.841 34.6313 67.8203 34.7815 67.8203 34.9359C67.8203 36.2625 68.4458 36.9342 69.676 36.9342C70.5127 36.9342 71.4156 36.5754 72.1115 35.9705L72.2938 36.7923H73.2423L74.2985 29.0369L72.9772 29.3247L72.2482 34.7982Z" fill="#018400"/>
<path d="M78.3372 27.3721L76.991 27.7142L76.788 29.2577L75.7773 29.3871L75.6572 30.2548H76.6431C76.3407 32.4492 76.1709 33.6424 76.0797 34.289C75.9679 35.0817 75.9596 35.1275 75.9596 35.2777C75.9596 36.5043 76.8791 36.9423 77.7366 36.9423C78.0969 36.9423 78.6271 36.8797 79.1283 36.5919L79.1739 36.5627L78.9958 35.6574L78.9254 35.6866C78.797 35.7408 78.4656 35.8618 78.1301 35.8618C77.5336 35.8618 77.2561 35.6365 77.2561 35.1484C77.2561 35.065 77.2602 35.0232 77.4135 33.9427C77.5088 33.2544 77.6703 32.1113 77.9271 30.2548H79.6585L80.0106 29.2536H78.0721L78.3372 27.3721Z" fill="#018400"/>
<path d="M80.7686 36.7965H82.0567L83.142 29.041L81.8082 29.3289L80.7686 36.7965Z" fill="#018400"/>
<path d="M82.8644 26.3376C82.3343 26.3376 81.8662 26.8007 81.8662 27.3306C81.8662 27.7686 82.1893 28.0898 82.6325 28.0898C83.1627 28.0898 83.6307 27.6268 83.6307 27.0969C83.6307 26.6547 83.3076 26.3376 82.8644 26.3376Z" fill="#018400"/>
<path d="M87.9759 29.0576C86.99 29.0576 86.0746 29.4581 85.4036 30.1924C84.6332 31.0309 84.2231 32.2533 84.2231 33.7301C84.2231 34.748 84.4551 35.5449 84.9149 36.0997C85.3788 36.6587 86.0457 36.9424 86.8989 36.9424C87.9634 36.9424 88.9161 36.5127 89.5871 35.7284C90.2996 34.894 90.6765 33.7051 90.6765 32.2866C90.6765 31.2437 90.4238 30.4302 89.9226 29.867C89.4546 29.3371 88.7836 29.0576 87.9759 29.0576ZM89.3593 32.1406C89.3593 34.4393 88.4439 35.9245 87.0273 35.9245C86.0705 35.9245 85.5652 35.1694 85.5652 33.7426C85.5652 31.9904 86.1741 30.1131 87.8847 30.1131C88.8912 30.1131 89.3593 30.7556 89.3593 32.1406Z" fill="#018400"/>
<path d="M97.9953 29.4791C97.6557 29.2037 97.1752 29.0577 96.5995 29.0577C95.8207 29.0577 94.7811 29.3748 94.0894 30.2467L94.2385 29.041L92.9172 29.3247L91.9023 36.7965H93.1822L93.8781 31.7736C94.4332 30.8015 95.3734 30.1257 96.1645 30.1257C96.9267 30.1257 97.2705 30.4678 97.2705 31.2396C97.2705 31.3939 97.2705 31.6109 96.5415 36.7297L96.5332 36.8007H97.8131L97.8214 36.7464C98.6042 31.4023 98.6042 31.0894 98.6042 30.9559C98.5959 30.3009 98.393 29.8045 97.9953 29.4791Z" fill="#018400"/>
<path d="M109.63 35.0568C110.243 34.2517 110.641 33.2296 110.753 32.1741L110.761 32.1032H109.593L109.581 32.1532C109.44 32.779 109.253 33.5007 108.852 34.1641C107.965 33.1086 107.327 32.3118 106.95 31.7861C108.048 31.1979 109.15 30.3885 109.15 28.9117C109.15 27.56 108.127 26.9509 107.116 26.9509C105.799 26.9509 104.378 27.9021 104.378 29.4374C104.378 30.0965 104.647 30.8433 105.132 31.5483C104.105 32.2158 102.941 32.9751 102.941 34.4811C102.941 35.9955 104.457 36.93 105.861 36.93C106.909 36.93 107.957 36.6004 108.748 36.0205C108.889 36.1791 109.009 36.3167 109.113 36.4252C109.253 36.5796 109.374 36.7172 109.394 36.7464L109.407 36.784H111.155L110.964 36.5671C110.517 36.0915 110.061 35.5825 109.63 35.0568ZM105.691 32.4035C106.843 33.8387 107.493 34.5729 107.969 35.1111L108.073 35.2279C107.555 35.6075 106.805 35.8328 106.052 35.8328C105.07 35.8328 104.333 35.1737 104.333 34.2934C104.333 33.3088 105 32.8166 105.691 32.4035ZM106.975 28.0857C107.447 28.0857 107.953 28.3193 107.953 28.9784C107.953 29.8379 107.207 30.3969 106.362 30.935C106.014 30.4636 105.654 29.7419 105.654 29.2121C105.654 28.507 106.325 28.0857 106.975 28.0857Z" fill="#018400"/>
<path d="M114.891 27.0593L114.721 28.24H117.269L116.088 36.7255L116.08 36.7964H117.422L118.611 28.24H121.162L121.332 27.0593H114.891Z" fill="#018400"/>
<path d="M125.656 29.0577C125.163 29.0577 124.679 29.2121 124.215 29.5166C123.83 29.7711 123.523 30.084 123.316 30.3385L123.362 29.041L122.177 29.3289L121.17 36.7256L121.162 36.7965H122.442L123.138 31.7611C123.523 31.0519 124.347 30.2926 125.014 30.2926C125.3 30.2926 125.586 30.3677 125.855 30.5179L125.913 30.5471L126.576 29.2287L126.51 29.2037C126.244 29.1078 125.967 29.0577 125.656 29.0577Z" fill="#018400"/>
<path d="M131.273 34.7982C130.635 35.4907 129.931 35.8745 129.293 35.8745C128.518 35.8745 128.187 35.4949 128.187 34.6063C128.187 34.4853 128.22 34.1724 128.916 29.1286L128.928 29.041L127.594 29.3247L127.391 30.789C126.865 34.6313 126.845 34.7815 126.845 34.9359C126.845 36.2625 127.47 36.9342 128.7 36.9342C129.537 36.9342 130.44 36.5754 131.136 35.9705L131.318 36.7923H132.267L133.31 29.1245L133.323 29.0369L132.002 29.3247L131.273 34.7982Z" fill="#018400"/>
<path d="M137.56 29.0576C136.848 29.0576 136.152 29.2579 135.647 29.6041C135.029 30.0297 134.702 30.668 134.702 31.4397C134.702 32.5703 135.613 33.0209 136.421 33.4214C137.109 33.7635 137.701 34.0555 137.701 34.6813C137.701 35.2904 137.055 35.766 136.226 35.766C135.477 35.766 134.818 35.3988 134.632 35.2862L134.582 35.257L133.965 36.1665L134.01 36.204C134.557 36.6546 135.34 36.9132 136.152 36.9132C136.893 36.9132 137.585 36.7005 138.103 36.3166C138.687 35.8828 138.993 35.2612 138.993 34.5311C138.993 33.2128 138.049 32.7706 137.216 32.3784C136.595 32.0864 136.061 31.8361 136.061 31.277C136.061 30.426 136.856 30.1256 137.535 30.1256C138.065 30.1256 138.649 30.28 138.96 30.5011L139.018 30.5428L139.515 29.6458L139.465 29.6125C138.919 29.2454 138.277 29.0576 137.56 29.0576Z" fill="#018400"/>
<path d="M143.31 27.3721L141.964 27.7142L141.761 29.2577L140.75 29.3871L140.63 30.2548H141.616C141.313 32.4492 141.143 33.6424 141.052 34.2848C140.941 35.0775 140.932 35.1234 140.932 35.2736C140.932 36.5001 141.852 36.9381 142.709 36.9381C143.07 36.9381 143.6 36.8756 144.101 36.5877L144.151 36.5585L143.973 35.6532L143.902 35.6824C143.774 35.7366 143.442 35.8576 143.107 35.8576C142.51 35.8576 142.233 35.6323 142.233 35.1442C142.233 35.0608 142.237 35.0191 142.39 33.9386C142.486 33.2502 142.647 32.1071 142.904 30.2506H144.635L144.987 29.2494H143.049L143.31 27.3721Z" fill="#018400"/>
</svg>
